<svg xmlns="http://www.w3.org/2000/svg" version="1.1" xmlns:xlink="http://www.w3.org/1999/xlink" xmlns:svgjs="http://svgjs.dev/svgjs" width="1000" height="95" viewBox="0 0 1000 95"><g transform="matrix(1,0,0,1,-0.6060560961867623,-0.3611676641610728)"><svg viewBox="0 0 396 38" data-background-color="#ffffff" preserveAspectRatio="xMidYMid meet" height="95" width="1000" xmlns="http://www.w3.org/2000/svg" xmlns:xlink="http://www.w3.org/1999/xlink"><g id="tight-bounds" transform="matrix(1,0,0,1,0.23999821408995103,0.14446706566442913)"><svg viewBox="0 0 395.52 37.711063846625365" height="37.711063846625365" width="395.52"><g><svg viewBox="0 0 644.6554575321535 61.465015974086086" height="37.711063846625365" width="395.52"><g><rect width="4.010838330274652" height="44.69778658028691" x="406.0195767808237" y="8.383614696899588" fill="#486fff" opacity="1" stroke-width="0" stroke="transparent" fill-opacity="1" class="rect-o-0" data-fill-palette-color="primary" rx="1%" id="o-0" data-palette-color="#486fff"></rect></g><g transform="matrix(1,0,0,1,0,8.494803220731146)"><svg viewBox="0 0 395.52 44.47540953262379" height="44.47540953262379" width="395.52"><g id="textblocktransform"><svg viewBox="0 0 395.52 44.47540953262379" height="44.47540953262379" width="395.52" id="textblock"><g><svg viewBox="0 0 395.52 44.47540953262379" height="44.47540953262379" width="395.52"><g transform="matrix(1,0,0,1,0,0)"><svg width="395.52" viewBox="2 -36 322.1300048828125 36.45000076293945" height="44.47540953262379" data-palette-color="#486fff"><g class="wordmark-text-0" data-fill-palette-color="primary" id="text-0"><path d="M15.95-1.55Q15.95-0.9 12.88-0.5 9.8-0.1 6.75-0.1 3.7-0.1 2.85-0.45 2-0.8 2-1.55L2-1.55 2-32.2Q2-33.5 4.83-34.5 7.65-35.5 11.35-35.5L11.35-35.5Q14.4-35.5 15.3-34.3L15.3-34.3Q15.95-33.45 15.95-32.75L15.95-32.75 15.95-24.5 16.35-24.5Q16.35-24.75 17.85-28.65L17.85-28.65Q20.7-36 22-36L22-36Q24.45-36 28.9-34.55L28.9-34.55Q31.05-33.85 32.6-32.52 34.15-31.2 34.15-29.6L34.15-29.6Q34.15-28.6 32.13-25.73 30.1-22.85 26-18.05L26-18.05Q26.95-17.05 28.4-15.5 29.85-13.95 32.27-10.88 34.7-7.8 34.7-6.5 34.7-5.2 32.35-3.48 30-1.75 27.35-0.68 24.7 0.4 23.4 0.4L23.4 0.4Q22.55 0.4 21.08-2.18 19.6-4.75 17.5-9.9L17.5-9.9 15.95-8.05 15.95-1.55ZM51.4-1.45Q51.4-0.8 48.37-0.4 45.35 0 42.27 0 39.2 0 38.32-0.35 37.45-0.7 37.45-1.45L37.45-1.45 37.45-32.2Q37.45-33.45 40.35-34.48 43.25-35.5 46.65-35.5L46.65-35.5Q51.4-35.5 51.4-33.25L51.4-33.25 51.4-22.25 55.85-22.25 55.85-32.2Q55.85-33.45 58.77-34.48 61.7-35.5 65.1-35.5L65.1-35.5Q69.8-35.5 69.8-33.25L69.8-33.25 69.8-1.45Q69.8-0.8 66.75-0.4 63.7 0 60.65 0 57.6 0 56.72-0.35 55.85-0.7 55.85-1.45L55.85-1.45 55.85-12.9 51.4-12.9 51.4-1.45Z" fill="#486fff" data-fill-palette-color="primary"></path><path d="M81.55-31.95L81.55-31.95Q81.55-32.55 82.85-33.38 84.15-34.2 86.52-34.85 88.9-35.5 91.7-35.5 94.5-35.5 95.8-34.7 97.1-33.9 97.2-32.95L97.2-32.95 98.95-14.75 99.65-14.75 101.2-32.5Q101.35-33.9 104.6-34.7 107.85-35.5 110.65-35.5 113.45-35.5 114.8-35.02 116.15-34.55 116.52-34.05 116.9-33.55 116.9-33.13 116.9-32.7 116.17-30.78 115.45-28.85 114.65-26.65L114.65-26.65Q112-19.65 105.7-1.55L105.7-1.55Q105.15 0 97.1 0L97.1 0Q94.6 0 93.8-0.35 93-0.7 92.7-1.55L92.7-1.55Q89.75-10.05 85.65-20.85 81.55-31.65 81.55-31.95ZM144.75 0L144.75 0 123.55 0Q121.1 0 120.25-0.35 119.4-0.7 119.4-1.45L119.4-1.45 119.4-33.1Q119.4-34.4 120.57-34.95 121.75-35.5 124.8-35.5L124.8-35.5 144.89-35.5Q145.95-35.5 145.95-32.02 145.95-28.55 145.5-26.73 145.05-24.9 144.3-24.9L144.3-24.9Q141.05-24.9 133.35-25.55L133.35-25.55 133.35-22.2Q140.75-22.5 143-22.5L143-22.5Q144.35-22.5 144.35-19.35 144.35-16.2 143.82-14.58 143.3-12.95 142.39-12.95L142.39-12.95 133.35-13.15 133.35-9.95Q142.05-10.6 145.35-10.6L145.35-10.6Q146.39-10.6 146.39-7.1 146.39-3.6 145.95-1.8 145.5 0 144.75 0ZM163.84-1.45Q163.84-0.8 160.82-0.4 157.79 0 154.72 0 151.64 0 150.77-0.35 149.89-0.7 149.89-1.45L149.89-1.45 149.89-32.2Q149.89-33.45 152.79-34.48 155.69-35.5 159.09-35.5L159.09-35.5Q163.84-35.5 163.84-33.25L163.84-33.25 163.84-22.25 168.29-22.25 168.29-32.2Q168.29-33.45 171.22-34.48 174.14-35.5 177.54-35.5L177.54-35.5Q182.24-35.5 182.24-33.25L182.24-33.25 182.24-1.45Q182.24-0.8 179.19-0.4 176.14 0 173.09 0 170.04 0 169.17-0.35 168.29-0.7 168.29-1.45L168.29-1.45 168.29-12.9 163.84-12.9 163.84-1.45ZM200.19-1.2Q200.19-0.65 197.14-0.33 194.09 0 191.02 0 187.94 0 187.09-0.28 186.24-0.55 186.24-1.2L186.24-1.2 186.24-32.3Q186.24-33.4 189.14-34.48 192.04-35.55 195.64-35.55L195.64-35.55Q198.84-35.55 199.84-34.2L199.84-34.2Q200.19-33.7 200.19-33.2L200.19-33.2 200.19-1.2ZM229.24-0.38Q227.24 0.1 225.16 0.28 223.09 0.45 221.11 0.45 219.14 0.45 218.06 0.35 216.99 0.25 215.24-0.15 213.49-0.55 212.04-1.25 210.59-1.95 208.96-3.3 207.34-4.65 206.24-6.5L206.24-6.5Q203.69-10.8 203.69-17.6L203.69-17.6Q203.69-22.15 205.11-25.65 206.54-29.15 208.56-31.05 210.59-32.95 213.19-34.1L213.19-34.1Q217.39-36 221.64-36L221.64-36Q227.74-36 230.39-35L230.39-35Q231.59-34.55 232.54-33.6 233.49-32.65 233.49-30.85 233.49-29.05 232.61-26.3 231.74-23.55 230.09-23.55L230.09-23.55Q229.59-23.55 226.39-24.35 223.19-25.15 222.04-25.15L222.04-25.15Q220.29-25.15 219.06-23.2 217.84-21.25 217.84-17.65 217.84-14.05 218.91-12.05 219.99-10.05 221.74-10.05L221.74-10.05Q222.99-10.05 226.26-11.08 229.54-12.1 230.09-12.1L230.09-12.1Q231.64-12.1 232.51-9.25 233.39-6.4 233.39-4.65 233.39-2.9 232.31-1.88 231.24-0.85 229.24-0.38ZM259.54 0L241.18 0Q238.68 0 237.83-0.28 236.99-0.55 236.99-1.2L236.99-1.2 236.99-32.3Q236.99-33.4 239.89-34.48 242.79-35.55 246.39-35.55L246.39-35.55Q249.58-35.55 250.58-34.2L250.58-34.2Q250.93-33.7 250.93-33.2L250.93-33.2 250.93-11.05Q257.04-11.45 260.14-11.45L260.14-11.45Q261.18-11.45 261.18-8.13 261.18-4.8 260.74-2.4 260.29 0 259.54 0L259.54 0ZM289.53 0L289.53 0 268.33 0Q265.88 0 265.03-0.35 264.18-0.7 264.18-1.45L264.18-1.45 264.18-33.1Q264.18-34.4 265.36-34.95 266.53-35.5 269.58-35.5L269.58-35.5 289.68-35.5Q290.73-35.5 290.73-32.02 290.73-28.55 290.28-26.73 289.83-24.9 289.08-24.9L289.08-24.9Q285.83-24.9 278.13-25.55L278.13-25.55 278.13-22.2Q285.53-22.5 287.78-22.5L287.78-22.5Q289.13-22.5 289.13-19.35 289.13-16.2 288.61-14.58 288.08-12.95 287.18-12.95L287.18-12.95 278.13-13.15 278.13-9.95Q286.83-10.6 290.13-10.6L290.13-10.6Q291.18-10.6 291.18-7.1 291.18-3.6 290.73-1.8 290.28 0 289.53 0ZM320.13-2.1Q318.63-1 315.96-0.28 313.28 0.45 309.05 0.45 304.83 0.45 301.03-0.25 297.23-0.95 295.58-1.8 293.93-2.65 293.93-3.45L293.93-3.45Q293.93-6.25 294.73-9.28 295.53-12.3 296.63-12.3L296.63-12.3Q296.83-12.3 300.78-10.95 304.73-9.6 306.73-9.6 308.73-9.6 309.33-10.03 309.93-10.45 309.93-11.25 309.93-12.05 308.83-12.68 307.73-13.3 306.08-13.78 304.43-14.25 302.5-15.15 300.58-16.05 298.93-17.15 297.28-18.25 296.18-20.28 295.08-22.3 295.08-24.9L295.08-24.9Q295.08-36 308.33-36L308.33-36Q313.28-36 316.88-35.38 320.48-34.75 321.96-33.98 323.43-33.2 323.43-32.45L323.43-32.45Q323.43-29.85 322.21-26.85 320.98-23.85 319.83-23.85L319.83-23.85Q319.63-23.85 318.53-24.3L318.53-24.3Q315.23-25.75 313.05-25.75 310.88-25.75 310.11-25.35 309.33-24.95 309.33-24.13 309.33-23.3 310.43-22.78 311.53-22.25 313.15-21.83 314.78-21.4 316.71-20.53 318.63-19.65 320.28-18.48 321.93-17.3 323.03-15.15 324.13-13 324.13-10.15L324.13-10.15Q324.13-7.15 322.58-4.7L322.58-4.7Q321.63-3.2 320.13-2.1Z" fill="#ffdc00" data-fill-palette-color="secondary"></path></g></svg></g></svg></g></svg></g></svg></g><g transform="matrix(1,0,0,1,420.52999189192207,0)"><svg viewBox="0 0 224.12546564023148 61.465015974086086" height="61.465015974086086" width="224.12546564023148"><g><svg xmlns="http://www.w3.org/2000/svg" xmlns:xlink="http://www.w3.org/1999/xlink" version="1.1" x="0" y="0" viewBox="0.04026004672050476 34.641727447509766 99.61673736572266 27.319271087646484" enable-background="new 0 0 100 100" xml:space="preserve" height="61.465015974086086" width="224.12546564023148" class="icon-icon-0" data-fill-palette-color="accent" id="icon-0"><path fill="#486fff" d="M72.502 53.293c0-4.788 3.88-8.668 8.667-8.668 4.788 0 8.67 3.88 8.67 8.668 0 4.787-3.882 8.668-8.67 8.668C76.382 61.961 72.502 58.08 72.502 53.293zM76.704 57.895c-0.113-0.098-0.25-0.115-0.322-0.035-0.079 0.086-0.049 0.266 0.062 0.396 1.207 1.438 2.871 2.329 4.707 2.334 1.834-0.005 3.498-0.896 4.703-2.334 0.111-0.13 0.143-0.31 0.062-0.396-0.07-0.08-0.208-0.062-0.323 0.035-1.212 1.104-2.758 1.764-4.446 1.767C79.462 59.657 77.917 58.997 76.704 57.895zM69.303 53.168c-0.881-0.014-1.771-0.02-2.668-0.02-6.992 0-13.527 0.408-19.084 1.113 6.077-0.246 13.713-0.289 21.76 0.319-0.02-0.252-0.025-0.504-0.025-0.759C69.284 53.604 69.289 53.386 69.303 53.168zM63.896 36.096c-8.375-0.817-15.951-0.683-21.05 1.306-3.291 1.282-6.469 2.617-11.126 4.479 7.314 0 28.246 0.049 28.246 0.049 3.854 0 5.079-2.149 5.839-2.138 15.396 0.256 30.123 2.446 33.654 3.005-0.325 1.354-1.797 6.151-5.984 9.98-2.195 2.322 0.61 3.662-0.283 3.818h-2.916c0.375-1.031 0.578-2.145 0.578-3.304 0-5.349-4.336-9.685-9.686-9.685-5.348 0-9.684 4.336-9.684 9.685 0 1.453 0.32 2.832 0.894 4.067-19.646-1.924-37.702 0.371-37.702 0.371l-8.217 1.691c1.367-1.671 2.187-3.805 2.187-6.131 0-5.349-4.335-9.685-9.683-9.685-5.349 0-9.685 4.336-9.685 9.685 0 2.135 0.691 4.109 1.863 5.712C6.264 58.74 2.294 58.45 0.224 57.209c-1.22-0.718 4.154-0.71 0.974-8.258h7.07c0.552 0 1.001-0.45 1.001-1.003v-0.079H0.706c-0.097-0.2-0.198-0.404-0.306-0.613 6.175-4.294 13.646-5.859 22.963-5.859 3.699-0.147 6.614-0.763 9.255-1.574 3.679-1.399 7.489-2.793 9.773-3.588 13.003-4.529 39.9 1.622 57.266 5.717 0 0-0.13 0.591-0.188 0.791-4.923-1.071-18.416-3.701-33.896-4.262-0.046-0.002-0.688-1.126-1.501-2.167C64.016 36.241 63.957 36.167 63.896 36.096zM14.498 57.895c-0.113-0.098-0.251-0.115-0.322-0.035-0.079 0.086-0.048 0.266 0.062 0.396 1.207 1.438 2.871 2.329 4.708 2.334 1.831-0.005 3.495-0.896 4.702-2.334 0.111-0.13 0.143-0.31 0.062-0.396-0.072-0.08-0.209-0.062-0.322 0.035-1.213 1.104-2.758 1.764-4.447 1.767C17.256 59.657 15.712 58.997 14.498 57.895zM10.296 53.293c0-4.788 3.881-8.668 8.668-8.668s8.668 3.88 8.668 8.668c0 4.787-3.881 8.668-8.668 8.668S10.296 58.08 10.296 53.293z" data-fill-palette-color="accent"></path></svg></g></svg></g></svg></g><defs></defs></svg><rect width="395.52" height="37.711063846625365" fill="none" stroke="none" visibility="hidden"></rect></g></svg></g></svg>